<svg class="logo"x="0px" y="0px" viewBox="0 0 100 56.2">
  <g class="whiteStrokes">
    <path d="M24.8,46.5c-2.9,0-4.2-1.9-4.2-3.6c0-1,0.4-1.8,0.8-2.3c1.7-2.3,3.2-6.4,3.8-9.4 c-0.8-1.3-1.2-3-1.2-4.7c0-3.8,2.1-6.5,5.2-6.5c1.8,0,3.6,0.9,4.4,2.9c0.8-0.6,1.4-0.9,2.4-0.9c2.5,0,4.6,2.7,4.6,4.9 c0,0.9-0.3,1.6-0.4,1.9c0,0.4,0.4,1.2,0.7,1.7c0.3,0.7,0.6,1.4,0.9,2.1c1.1,0.6,1.8,1.7,1.8,3c0,0.3,0,0.6-0.1,0.8 c-0.5,3.5-2.8,9.8-8.3,9.8c-2.3,0-4.3-0.9-5.5-2.6c-0.1-0.2-0.2-0.3-0.3-0.5c-0.4,0.7-0.8,1.4-1.2,2l0,0 C27.5,45.8,26.5,46.5,24.8,46.5z"/> 
    <path d="M31.1,56.2c-6.8,0-10.3-7.7-13.7-15.2c-1.4-3-2.7-6.1-4.3-8.6c0,0-0.1,0-0.1,0.1 C13,36,13,39.9,13,44.3c0,1-0.5,2-1.3,2.7c-1.7,1.4-4.6,1.4-5.3,1.3c-3.4-0.5-4.9-3.9-4.9-6.2v-0.5l0-0.2c0.4-2.5,0.8-5.7,1.2-9 C1,31,0,28.9,0,26.8c0-2.7,1.5-5,4-6c0.5-4.8,1-9.8,1.4-14.5l0-0.1c0.3-2.5,2-3.6,3.5-3.6c0.8,0,1.8,0.4,2.3,0.7 c0.2,0.1,0.5,0.3,1.4,0.9l0.3,0.2l0.2,0.2c0.7,0.7,1.1,1.6,1.1,2.6l0,0.3c-0.4,4.5-0.6,8.5-0.8,12.5c3.1-3.2,7.5-8.7,11.9-17.9 l0.1-0.2c0.5-0.9,1.4-1.5,2.3-1.8c0.9-0.2,1.9,0,2.7,0.5c2.3,1.6,2.5,4.7,1.6,6.5c-3.9,8.2-8.3,15.1-12.4,19.8 c2,2.6,3.7,5.7,5.3,8.7c2.5,4.6,5.1,9.3,7.7,9.3c2.1,0,3.9-0.9,5.7-2.7l0.5-0.5l0.7-0.2c0.3-0.1,0.7-0.2,1.2-0.2 c1.7,0,3.1,1.3,3.3,3c0.3,2.3-0.7,4.8-1.5,6.6C40.7,54.8,35.2,56.2,31.1,56.2z"/> 
    <path d="M42.8,46.5c-2.3,0-6.2-1.3-6.2-10.3c0-4.3,0.9-9.1,1.5-11.2c0.5-1.7,1.9-2.8,3.6-2.8 c0.5,0,1,0,1.9-0.2l0.3-0.1h0.3c1.5,0,2.5,0.7,3.1,1.7c1.2-1.8,2.8-2,3.5-2c1.7,0,4.8,1.4,4.8,4.1c0,0.5-0.1,0.9-0.2,1.1l-0.1,0.3 c-0.2,0.7-0.8,4.5-0.9,7.8c0.1,0,0.2-0.1,0.4-0.1c0.9-0.2,1.9,0,2.6,0.5c0.5,0.4,2.1,1.8,1.2,4.4l0,0c0-0.1,0-0.1,0-0.2 c-0.2,1-2.5,6.1-6.9,6.1c-1,0-2.8-0.2-4.3-1.8C46.4,45.4,44.8,46.5,42.8,46.5z"/> 
    <path d="M68.9,52.4c-3.1,0-6-2.2-8.2-5.4c-0.5,0.3-1.1,0.4-1.6,0.4c-1.1,0-1.8-0.5-2.1-0.7l-0.2-0.1 c-0.2-0.1-0.7-0.4-1-0.7c-0.3-0.2-0.5-0.3-0.8-0.5L55,45.6l0-0.2c-0.4-0.3-0.8-0.5-1.1-0.8l-1-1l0-1.4c0-2,0.4-7.6,1-13.9l0-0.1 c0-0.3,0.9-6.4,2.2-12.6c2.3-11.3,4.2-15,7.7-15c3,0,6.2,2.2,6.2,8.5c0,3.6-1.1,8.2-2.9,12.3c2.5,0.5,4.2,2.6,4.2,5.3 c0,3-2,6.9-6.3,9.6c1.1,3.2,3,5.1,5.2,5.1c0.9,0,1.9-0.3,2.9-0.9c1.8-1.1,3.5-0.6,4.4,0.4c1.4,1.5,1,3.6,0.8,4.2 C77.5,48.7,75.8,52.4,68.9,52.4z"/> 
    <path d="M92.2,47.6c-2.4,0-4.9-1.5-6-4.8c-1.4,1.9-3.3,3.2-5.6,3.2c-1.4,0-2.9-0.5-4.2-1.7 c-1.4,1.3-2.8,1.7-4,1.7c-4.5,0-7.4-3.9-7.4-9.9c0-7.2,3.8-15,9.9-15c2.7,0,4.8,1.3,5.9,3.5c0.6-2.7,2.5-4.5,5-4.5 c1.8,0,3.6,0.9,4.4,2.9c0.8-0.6,1.4-0.9,2.4-0.9c2.5,0,4.6,2.7,4.6,4.9c0,0.8-0.2,1.4-0.4,1.8c-0.1,0.4-0.8,2-1.1,2.7 c-0.6,1.4-0.9,2.8-1.1,4.2c0.1-0.1,0.2-0.1,0.3-0.2c0.9-0.4,1.9-0.4,2.8,0c1.7,0.8,2.6,2.6,2,4.4C97.8,46.6,94.2,47.6,92.2,47.6z"/>
  </g>
  <g class="blackStrokes">
    <path d="M31.1,55.3c-6.2,0-9.4-7.1-12.8-14.7c-1.5-3.4-3.1-6.9-4.9-9.5c-0.5,0.3-0.9,0.6-1.4,0.8 C12,35.6,12,39.7,12,44.3c0,0.8-0.3,1.5-0.9,2c-1.4,1.2-4.1,1.1-4.5,1c-2.8-0.4-4.1-3.3-4.1-5.2v-0.4l0-0.2 c0.4-2.7,0.9-6.1,1.3-9.6C2.1,30.8,1,28.8,1,26.8c0-2.2,1.2-4.5,3.9-5.3c0.5-5,1-10.2,1.4-15.1c0.2-2.1,1.5-2.8,2.5-2.8 c0.6,0,1.5,0.4,1.9,0.6c0.3,0.1,0.7,0.4,1.3,0.8l0.2,0.1l0.2,0.2c0.5,0.5,0.8,1.2,0.8,1.9l0,0.2c-0.4,5.3-0.7,9.9-0.9,14.7 c0.1,0,0.1,0.1,0.2,0.1c3.2-2.9,8.5-8.8,13.6-19.7l0.1-0.1C26.4,2,26.9,1.3,27.9,1c0.6-0.2,1.3,0,1.9,0.3c2,1.3,1.9,4,1.3,5.2 c-4.1,8.5-8.6,15.6-12.8,20.2c2.2,2.7,4,6,5.8,9.2c2.7,5.1,5.3,9.8,8.6,9.8c2.3,0,4.4-1,6.4-3l0.4-0.4l0.5-0.2 c0.2-0.1,0.5-0.2,0.9-0.2c1.2,0,2.2,1,2.4,2.1c0.3,2.2-0.8,4.7-1.4,6C39.5,55.1,31.9,55.3,31.1,55.3z"/> 
    <path d="M24.8,45.6c-2.5,0-3.2-1.7-3.2-2.6c0-0.8,0.3-1.3,0.6-1.7c1.9-2.6,3.5-7,4.1-10.2c-0.8-1.2-1.3-2.8-1.3-4.5 c0-3.3,1.7-5.5,4.2-5.5c1.7,0,3.6,1,3.8,3.7c0,0,0,0,0,0c1.4-1.3,2-1.8,3-1.8c1.9,0,3.6,2.2,3.6,3.9c0,0.7-0.3,1.3-0.4,1.5 c-0.2,0.5,0.3,1.5,0.7,2.5c0.4,0.7,0.7,1.5,0.9,2.4c0.9,0.3,1.6,1.2,1.6,2.3c0,0.2,0,0.5-0.1,0.6c-0.5,3.7-2.8,9-7.4,9 c-1.4,0-4.6-0.6-5.2-5.8c-0.8,2-1.7,3.8-2.5,5C27,45,26.2,45.6,24.8,45.6z"/> 
    <path d="M42.8,45.6c-2.4,0-5.3-1.6-5.3-9.3c0-4.2,0.9-8.9,1.5-10.9c0.4-1.3,1.4-2.1,2.6-2.1c0.6,0,1.2,0,2.1-0.2l0.2-0.1 h0.2c1.7,0,2.7,1.3,2.7,2.5c0,0.4-0.1,0.7-0.3,1.4c-0.4,1.3-1.2,4.2-1.5,8.4c0.3-0.7,0.6-1.4,0.9-2.1c0.2-3.3,1-6.8,1.9-8.6 c0.9-1.8,2.2-2.1,2.9-2.1c1.3,0,3.8,1.1,3.8,3.1c0,0.4-0.1,0.7-0.1,0.9l-0.1,0.2c-0.2,0.6-0.9,5.1-0.9,8.8c0,0.4,0,0.8,0,1.1 c0.3-0.4,0.8-0.8,1.5-1c0.6-0.1,1.3,0,1.9,0.4c0.5,0.3,1.5,1.4,0.8,3.3l0,0.1c0,0,0-0.1,0-0.1c-0.2,0.7-2.2,5.4-6,5.4 c-1.1,0-3-0.3-4.3-2.4C46.3,44.3,44.8,45.6,42.8,45.6z"/>
    <path d="M68.9,51.4c-3,0-5.8-2.4-7.9-5.8c-0.6,0.7-1.3,0.9-1.9,0.9c-0.8,0-1.3-0.4-1.5-0.5l-0.1-0.1 c-0.2-0.2-0.7-0.5-1.1-0.7c-0.8-0.5-1.3-0.8-1.7-1.2l-0.7-0.7l0-0.9c0-2,0.4-7.5,1-13.8l0-0.1c0-0.1,0.9-6.4,2.2-12.6 c2.5-11.9,4.3-14.2,6.8-14.2c1.2,0,5.2,0.5,5.2,7.5c0,3.9-1.2,8.9-3.4,13.2c0.1,0,0.3,0,0.4,0c2.5,0,4.2,1.8,4.2,4.5 c0,2.9-2.2,6.8-6.5,9.1c1.2,4.1,3.5,6.5,6.4,6.5c1.1,0,2.2-0.3,3.4-1c1.4-0.9,2.6-0.4,3.2,0.2c1.1,1.1,0.7,2.8,0.6,3.2 C76.5,48.3,75.2,51.4,68.9,51.4z M67.5,46.5c0.5,0.3,1,0.5,1.4,0.5c0.6,0,1.2,0,1.6-0.1C69.4,46.9,68.4,46.8,67.5,46.5z"/> 
    <path d="M92.2,46.6c-2.4,0-5.1-1.7-5.6-6.3c-1.3,2.6-3.2,4.7-6,4.7c-0.8,0-2.7-0.2-4.1-2.2c-1.2,1.4-2.5,2.2-4,2.2 c-3.9,0-6.4-3.5-6.4-9c0-6.7,3.4-14,8.9-14c2.7,0,4.7,1.4,5.5,3.9c0.4,0.2,0.8,0.4,1.2,0.7c0-0.1,0-0.1,0-0.2 c0-3.3,1.7-5.5,4.2-5.5c1.7,0,3.6,1,3.8,3.7c0,0,0,0,0,0c1.4-1.3,2-1.8,3-1.8c1.9,0,3.6,2.2,3.6,3.9c0,0.6-0.2,1.1-0.3,1.4 c-0.1,0.4-0.8,2-1.1,2.7c-0.8,1.8-1.2,3.9-1.2,5.7c0,0.6,0,1.1,0.1,1.5c0.2-0.6,0.8-1.5,1.7-1.9c0.6-0.3,1.4-0.3,2,0 c1.2,0.6,1.9,1.9,1.5,3.2C97.2,45.4,94.3,46.6,92.2,46.6z M74.7,30.6c-0.8,1.4-1.6,4.3-1.8,6.7C73.5,36,74.2,33.9,74.7,30.6z M82.5,30.4c0,0.3-0.1,0.7-0.1,1c-0.2,1.7-0.4,3.7-0.4,5.5c0,0.1,0,0.2,0,0.3c0.4-1,0.9-2.7,1.3-5.5C83,31.2,82.7,30.8,82.5,30.4z"/>
  </g>
  <g class="fills">
    <linearGradient id="gradient" gradientUnits="userSpaceOnUse" x1="0%" y1="25%" x2="0%" y2="450%">
      <stop offset="0" style="stop-color:#FFFFFF" />
      <stop offset="1" style="stop-color:#000000" /> 
    </linearGradient>
    <path class="fill" d="M8.9,5.7c0,0,0.6,0.2,0.8,0.3c0.3,0.1,1.1,0.7,1.1,0.7S11,6.9,11,7.2c-0.5,6-0.8,11.1-1,16.4 c1,0.3,1.9,0.7,2.8,1.2C17.3,21.1,23,14.2,28.1,3.4c0,0,0.2-0.4,0.4-0.2c0.9,0.6,0.7,2.1,0.5,2.4c-4.2,8.9-9.2,16.7-13.8,21.2 c6.9,6.8,9.9,21.3,17.3,21.3c3.2,0,5.9-1.5,8-3.6c0,0,0.1,0,0.2,0c0,0,0.2,0.1,0.2,0.2c0.2,1.3-0.4,3.1-1.2,4.8 c-1.3,2.8-5.9,3.6-8.7,3.6c-7.8,0-10.7-17.4-17.2-25.1c-1.4,1.1-2.7,2-4,2.5c-0.1,4.1-0.1,8.6-0.1,13.9c0,0.8-2.4,0.9-2.9,0.9 c-1.6-0.2-2.2-2.1-2.2-3v-0.3c0.5-3,1-6.9,1.4-11.3c-1.9-0.6-2.9-2.3-2.9-3.9c0-1.7,1.1-3.3,3.7-3.5c0.6-5.7,1.1-11.7,1.6-16.8 C8.5,6.5,8.6,5.7,8.9,5.7z M6.8,24.5c-1.5,0.1-2.6,0.9-2.6,1.8c0,1.2,0.7,1.9,1.9,1.9h0.3L6.8,24.5z M11.5,25.8 c-0.5-0.3-1-0.6-1.5-0.8c0,0.6,0,1.2,0,1.9C10.4,26.5,11,26.2,11.5,25.8z"/> 
    <path class="fill" d="M24.8,43.4c-0.5,0-1-0.1-1-0.4c0-0.1,0-0.2,0.1-0.3c2.4-3.1,4.2-8.5,4.7-12.2c-0.9-0.9-1.4-2.5-1.4-3.9 c0-1.7,0.7-3.3,2-3.3c1.3,0,1.6,0.9,1.6,2c0,0.9-0.2,2-0.2,2.8c0,0.7,0.1,1,0.4,1c0.2,0,0.5-0.2,0.9-0.4c1.5-1,3.7-3.4,4.1-3.4 c0.6,0,1.4,1.1,1.4,1.7c0,0.3-0.1,0.6-0.1,0.6c-1.2,2.4-2.4,6.7-2.4,8.8c0,2.3,0.7,3.7,1.7,3.7c0.8,0,1.9-1.1,2.8-3.5 c0.1-0.3,0.2-0.4,0.5-0.9c0.1-0.1,0.3-0.1,0.3-0.1c0.1,0,0.1,0.1,0.1,0.2c0,0.1,0,0.2,0,0.2C39.9,38.3,38.3,43,35,43 c-2.3,0-3-2.4-3-5.1s0.7-5.7,1.1-7.1c-0.7,0.3-1.6,0.5-2.5,0.5c-0.2,0-0.5,0-0.6,0c-0.3,3.4-2.6,9.3-4.5,12.1 C25.4,43.3,25.1,43.4,24.8,43.4z"/> 
    <path class="fill" d="M52.5,25.7c0,0.1,0,0.3-0.1,0.4c-0.3,0.9-1,5.7-1,9.5c0,2.7,0.5,4.8,1.6,4.8c0.6,0,1.2-0.6,2.1-1.8 c0.1-0.2,0.4-0.8,0.7-0.6c0.3,0.2,0,0.7,0,1c-0.1,0.4-1.6,3.7-3.8,3.7c-2.7,0-3.6-3.1-3.7-6.7c-1.2,3.3-3.1,7.5-5.4,7.5 c-2.3,0-3.1-3.3-3.1-7.1c0-4,0.8-8.5,1.4-10.3c0,0,0.2-0.6,0.5-0.6c0.7,0,1.4,0,2.6-0.3c0.5,0,0.5,0.3,0.5,0.3 c0,0.5-1.9,5.4-1.9,13.1c0,1.7,0.3,2.3,0.8,2.3c1.2,0,3.4-4,4.6-7.3c0.2-3.3,1-6.6,1.7-8.1c0.3-0.5,0.6-0.8,0.9-0.8 C51.4,24.8,52.5,25.3,52.5,25.7z"/> 
    <path class="fill" d="M66.2,24.6c1.4,0,2,0.9,2,2.3c0,2.4-2.3,6-6.8,7.9c1.2,6.2,4.7,9.9,8.9,9.9c1.4,0,3-0.4,4.5-1.4 c0,0,0.3-0.2,0.4-0.1c0.2,0.2,0.2,0.7,0.1,1.1c-0.8,3-1.7,4.9-6.5,4.9c-3.9,0-8.1-6.6-9-13.1c-0.1,0-0.3,0.4-0.3,0.4 c-0.3,0.6-0.3,2.4-0.3,4c0,1.6,0.2,3,0.2,3c0,0.4-0.1,0.7-0.3,0.7c-0.1,0-0.2,0-0.3-0.1c-0.7-0.6-2.3-1.3-2.6-1.7 c0-1.9,0.4-7.3,1-13.6c0,0,3.5-24.9,6.8-24.9c2.1,0,3,2.2,3,5.3c0,5.8-3.2,14.7-7.6,18.4c-0.2,1.3-0.3,2.7-0.4,4.1 C61.5,26.9,64.1,24.6,66.2,24.6z M65.2,28.4c0-0.4-0.3-0.7-0.8-0.7c-2.3,0-5.3,5.4-5.3,6.5C63.3,32.1,65.2,29.6,65.2,28.4z M64.3,9.2c-2,0-3.7,6.7-4.8,16.8c3.5-3.7,5.4-11.6,5.4-15C64.9,9.9,64.7,9.2,64.3,9.2z"/> 
    <path class="fill" d="M87.3,31.3c-0.2,0-0.3,0-0.4,0c-0.4,3.9-2.5,11.6-6.3,11.6c-1.7,0-3.3-1.4-3.7-5.3 c-1.1,3-2.8,5.3-4.4,5.3c-2.9,0-4.2-3.1-4.2-6.8c0-5.3,2.6-11.8,6.7-11.8c2.3,0,3.4,1.4,3.7,3.4c0.8,0.2,1.8,0.6,1.8,1.1 c0,1.2-0.6,5.1-0.6,8.1c0,2.2,0.3,3.9,1.4,3.9c2.8,0,4-5.3,4.5-10c-1.2-0.8-1.8-2.6-1.8-4.2c0-1.7,0.7-3.3,2-3.3 c1.3,0,1.6,0.9,1.6,2c0,0.9-0.2,2-0.2,2.8c0,0.7,0.1,1,0.4,1c0.2,0,0.5-0.2,0.9-0.4c1.5-1,3.7-3.4,4.1-3.4c0.6,0,1.4,1.1,1.4,1.7 c0,0.3-0.1,0.6-0.1,0.6s-0.8,2-1.1,2.7c-1,2.3-1.4,4.7-1.4,6.6c0,3.5,0.9,5.7,2,5.7c0.7,0,1.5-1,2.2-3.1c0.1-0.3,0.5-1.1,0.8-1 c0.3,0.1,0.3,0.4,0.3,0.6c-1,3.4-2.6,5.5-4.6,5.5c-1.8,0-3.5-1.7-3.5-5.9c0-3.1,0.7-6.4,1.1-7.8C88.8,31.1,87.9,31.3,87.3,31.3z M77.1,29c-0.7-0.9-1.4-1.4-2-1.4c-2.6,0-4.4,6.8-4.4,10.2c0,1.7,0.4,3,1.3,3C75.4,40.8,76.7,32.3,77.1,29z"/>
  </g>
</svg>