<?xml version="1.0" encoding="utf-8"?>
<!-- Generator: Adobe Illustrator 16.0.0, SVG Export Plug-In . SVG Version: 6.00 Build 0)  -->
<!DOCTYPE svg PUBLIC "-//W3C//DTD SVG 1.1//EN" "http://www.w3.org/Graphics/SVG/1.1/DTD/svg11.dtd">
<svg version="1.1" id="fb" xmlns="http://www.w3.org/2000/svg" xmlns:xlink="http://www.w3.org/1999/xlink" x="0px" y="0px"
	 width="100px" height="100px" viewBox="0 0 100 100" enable-background="new 0 0 100 100" xml:space="preserve">
<path id="fb_1_" fill="#FFFFFF" d="M94.479,0H5.519C2.47,0,0,2.47,0,5.519v88.965C0,97.527,2.47,100,5.519,100h47.892V61.273H40.38
	v-15.09h13.031V35.053c0-12.917,7.892-19.949,19.415-19.949c5.517,0,10.26,0.411,11.645,0.595v13.499l-7.992,0.003
	c-6.267,0-7.479,2.978-7.479,7.348v9.635h14.943l-1.945,15.092H69V100h25.484c3.043,0,5.516-2.473,5.516-5.521V5.519
	C100,2.47,97.527,0,94.479,0z"/>
</svg>
