<?xml version="1.0" encoding="utf-8"?>
<!-- Generator: Adobe Illustrator 16.0.0, SVG Export Plug-In . SVG Version: 6.00 Build 0)  -->
<!DOCTYPE svg PUBLIC "-//W3C//DTD SVG 1.1//EN" "http://www.w3.org/Graphics/SVG/1.1/DTD/svg11.dtd">
<svg version="1.1" id="flickr" xmlns="http://www.w3.org/2000/svg" xmlns:xlink="http://www.w3.org/1999/xlink" x="0px" y="0px"
	 width="100px" height="100px" viewBox="0 0 100 100" enable-background="new 0 0 100 100" xml:space="preserve">
<path id="flickr_1_" fill="#FFFFFF" d="M90.277,0H9.722C4.375,0,0,4.375,0,9.722v80.555C0,95.624,4.375,100,9.722,100h80.555
	c5.347,0,9.723-4.376,9.723-9.723V9.722C100,4.375,95.624,0,90.277,0z M29.771,65.973c-8.967,0-16.236-7.268-16.236-16.234
	s7.27-16.236,16.236-16.236c8.967,0,16.235,7.268,16.235,16.236C46.006,58.705,38.738,65.973,29.771,65.973z M70.93,65.973
	c-8.97,0-16.238-7.268-16.238-16.234s7.27-16.236,16.238-16.236c8.965,0,16.232,7.268,16.232,16.236
	C87.164,58.705,79.895,65.973,70.93,65.973z"/>
</svg>
