<?xml version="1.0" encoding="utf-8"?>
<!-- Generator: Adobe Illustrator 16.0.0, SVG Export Plug-In . SVG Version: 6.00 Build 0)  -->
<!DOCTYPE svg PUBLIC "-//W3C//DTD SVG 1.1//EN" "http://www.w3.org/Graphics/SVG/1.1/DTD/svg11.dtd">
<svg version="1.1" id="github" xmlns="http://www.w3.org/2000/svg" xmlns:xlink="http://www.w3.org/1999/xlink" x="0px" y="0px"
	 width="100px" height="100px" viewBox="0 0 100 100" enable-background="new 0 0 100 100" xml:space="preserve">
<path fill="#FFFFFF" d="M92.593,0H7.382C3.307,0,0,3.229,0,7.206v85.58C0,96.768,3.307,100,7.382,100h85.211
	c4.079,0,7.407-3.232,7.407-7.215V7.206C100,3.229,96.672,0,92.593,0z M65.628,98.009c-2.506,0.489-3.393-1.049-3.393-2.368
	c0-1.619,0.063-6.935,0.063-13.526c0-4.601-1.579-7.618-3.348-9.142c10.987-1.216,22.516-5.391,22.516-24.333
	c0-5.386-1.908-9.792-5.07-13.237c0.509-1.243,2.204-6.257-0.488-13.049c0,0-4.134-1.327-13.553,5.059
	c-3.938-1.099-8.159-1.646-12.348-1.664c-4.194,0.016-8.416,0.565-12.348,1.664c-9.422-6.385-13.563-5.059-13.563-5.059
	c-2.684,6.792-0.99,11.806-0.484,13.049c-3.154,3.445-5.075,7.851-5.075,13.237c0,18.897,11.513,23.128,22.463,24.374
	c-1.408,1.232-2.686,3.404-3.132,6.597c-2.807,1.257-9.955,3.437-14.353-4.1c0,0-2.605-4.733-7.555-5.081
	c0,0-4.818-0.063-0.34,2.997c0,0,3.233,1.52,5.477,7.213c0,0,2.895,9.596,16.614,6.612c0.021,4.12,0.063,7.221,0.063,8.389
	c0,1.312-0.898,2.829-3.366,2.373C14.809,91.498,0.68,73.01,0.68,51.22c0-27.239,22.082-49.322,49.317-49.322
	c27.24,0,49.322,22.083,49.322,49.322C99.319,73.005,85.202,91.477,65.628,98.009z"/>
</svg>
