<?xml version="1.0" encoding="utf-8"?>
<!-- Generator: Adobe Illustrator 16.0.0, SVG Export Plug-In . SVG Version: 6.00 Build 0)  -->
<!DOCTYPE svg PUBLIC "-//W3C//DTD SVG 1.1//EN" "http://www.w3.org/Graphics/SVG/1.1/DTD/svg11.dtd">
<svg version="1.1" id="lastfm" xmlns="http://www.w3.org/2000/svg" xmlns:xlink="http://www.w3.org/1999/xlink" x="0px" y="0px"
	 width="100px" height="100px" viewBox="0 0 100 100" enable-background="new 0 0 100 100" xml:space="preserve">
<path id="lastfm_1_" fill="#FFFFFF" d="M92.593,0H7.382C3.307,0,0,3.229,0,7.206v85.58C0,96.768,3.307,100,7.382,100h85.211
	c4.079,0,7.407-3.232,7.407-7.215V7.206C100,3.229,96.672,0,92.593,0z M71.316,72.621c-16.14,0-21.735-7.277-24.719-16.324
	l-2.986-9.329c-2.238-6.81-4.85-12.127-13.058-12.127c-5.691,0-11.474,4.104-11.474,15.578c0,8.956,4.571,14.555,11.008,14.555
	c7.272,0,12.125-5.412,12.125-5.412l2.983,8.113c0,0-5.034,4.945-15.576,4.945c-13.06,0-20.336-7.646-20.336-21.828
	c0-14.738,7.276-23.415,20.988-23.415c12.407,0,18.657,4.479,22.575,16.605l3.078,9.327c2.24,6.811,6.156,11.754,15.578,11.754
	c6.344,0,9.701-1.4,9.701-4.852c0-2.705-1.586-4.664-6.344-5.783l-6.344-1.492c-7.742-1.865-10.82-5.875-10.82-12.22
	c0-10.168,8.209-13.34,16.604-13.34c9.515,0,15.298,3.453,16.043,11.849l-9.327,1.118c-0.373-4.009-2.797-5.688-7.275-5.688
	c-4.104,0-6.621,1.865-6.621,5.035c0,2.801,1.21,4.479,5.314,5.41l5.971,1.308c8.021,1.864,12.314,5.783,12.313,13.339
	C90.718,69.076,82.884,72.621,71.316,72.621z"/>
</svg>
