<?xml version="1.0" encoding="utf-8"?>
<!-- Generator: Adobe Illustrator 16.0.0, SVG Export Plug-In . SVG Version: 6.00 Build 0)  -->
<!DOCTYPE svg PUBLIC "-//W3C//DTD SVG 1.1//EN" "http://www.w3.org/Graphics/SVG/1.1/DTD/svg11.dtd">
<svg version="1.1" id="linkedin" xmlns="http://www.w3.org/2000/svg" xmlns:xlink="http://www.w3.org/1999/xlink" x="0px" y="0px"
	 width="100px" height="100px" viewBox="0 0 100 100" enable-background="new 0 0 100 100" xml:space="preserve">
<path id="linkedin_1_" fill="#FFFFFF" d="M92.593,0H7.382C3.307,0,0,3.229,0,7.206v85.58C0,96.768,3.307,100,7.382,100h85.211
	c4.079,0,7.407-3.232,7.407-7.215V7.206C100,3.229,96.672,0,92.593,0z M29.658,85.213H14.819v-47.72h14.839V85.213z M22.239,30.967
	c-4.755,0-8.598-3.853-8.598-8.603c0-4.743,3.843-8.596,8.598-8.596c4.742,0,8.596,3.853,8.596,8.596
	C30.835,27.115,26.981,30.967,22.239,30.967z M85.208,85.213H70.395V62.008c0-5.535-0.108-12.653-7.711-12.653
	c-7.72,0-8.896,6.028-8.896,12.252v23.607H38.961V37.493h14.229v6.518h0.203c1.98-3.752,6.819-7.707,14.035-7.707
	c15.01,0,17.782,9.879,17.782,22.733v26.176H85.208z"/>
</svg>
