<?xml version="1.0" encoding="utf-8"?>
<!-- Generator: Adobe Illustrator 16.0.0, SVG Export Plug-In . SVG Version: 6.00 Build 0)  -->
<!DOCTYPE svg PUBLIC "-//W3C//DTD SVG 1.1//EN" "http://www.w3.org/Graphics/SVG/1.1/DTD/svg11.dtd">
<svg version="1.1" xmlns="http://www.w3.org/2000/svg" xmlns:xlink="http://www.w3.org/1999/xlink" x="0px" y="0px" width="100px"
	 height="100px" viewBox="0 0 100 100" enable-background="new 0 0 100 100" xml:space="preserve">
<g id="Layer_1" display="none">
	<g id="White_1_" display="inline">
		<path fill="#FFFFFF" d="M43.31,81.508V52.763h-9.673V41.561h9.673v-8.262c0-9.587,5.855-14.807,14.409-14.807
			c4.097,0,7.617,0.303,8.645,0.441v10.019l-5.932,0.003c-4.653,0-5.552,2.211-5.552,5.454v7.153h11.093l-1.444,11.201H54.88v28.744
			"/>
	</g>
</g>
<g id="Layer_8">
	<g>
		<g>
			<g>
				<path fill="#FFFFFF" d="M56.78,23.771h3.262v13.291c0,0.77,0,1.168,0.04,1.274c0.071,0.507,0.327,0.765,0.766,0.765
					c0.654,0,1.342-0.506,2.066-1.532V23.771h3.273v18.052h-3.273v-1.969c-1.301,1.494-2.543,2.22-3.737,2.22
					c-1.053,0-1.779-0.428-2.106-1.343c-0.181-0.545-0.29-1.411-0.29-2.685V23.771z M44.422,29.655c0-1.929,0.33-3.34,1.025-4.252
					c0.905-1.233,2.179-1.851,3.808-1.851c1.639,0,2.913,0.618,3.818,1.851c0.685,0.912,1.015,2.324,1.015,4.252v6.325
					c0,1.917-0.33,3.34-1.015,4.247c-0.905,1.229-2.177,1.848-3.818,1.848c-1.629,0-2.904-0.618-3.808-1.848
					c-0.696-0.906-1.025-2.329-1.025-4.247V29.655z M35.674,17.597l2.576,9.512l2.473-9.512h3.668l-4.362,14.415v9.811H36.4v-9.811
					c-0.328-1.74-1.054-4.286-2.217-7.665c-0.765-2.247-1.562-4.505-2.326-6.75H35.674z M75.846,76.397
					c-0.653,2.849-2.986,4.949-5.789,5.263c-6.644,0.742-13.366,0.746-20.06,0.742c-6.694,0.004-13.417,0-20.059-0.742
					c-2.805-0.313-5.133-2.416-5.787-5.263c-0.934-4.058-0.934-8.486-0.934-12.662c0-4.179,0.011-8.604,0.944-12.663
					c0.654-2.849,2.983-4.948,5.789-5.261c6.642-0.745,13.364-0.747,20.059-0.745c6.692-0.002,13.414,0,20.059,0.745
					c2.804,0.313,5.134,2.413,5.788,5.261c0.934,4.061,0.928,8.484,0.928,12.663C76.785,67.911,76.779,72.34,75.846,76.397z"/>
				<path d="M45.038,71.112c-0.717,1.015-1.396,1.514-2.046,1.514c-0.433,0-0.679-0.253-0.757-0.757
					c-0.032-0.104-0.032-0.497-0.032-1.257V57.458h-3.235v14.127c0,1.264,0.108,2.114,0.286,2.655
					c0.323,0.906,1.042,1.329,2.085,1.329c1.189,0,2.412-0.718,3.699-2.194v1.948h3.24V57.458h-3.24V71.112z"/>
				<polygon points="27.21,54.722 31.018,54.722 31.018,75.323 34.618,75.323 34.618,54.722 38.497,54.722 38.497,51.347 
					27.21,51.347 				"/>
				<path d="M49.255,39.1c1.055,0,1.561-0.835,1.561-2.505v-7.596c0-1.669-0.505-2.501-1.561-2.501
					c-1.056,0-1.562,0.832-1.562,2.501v7.596C47.695,38.264,48.199,39.1,49.255,39.1z"/>
				<path d="M57.66,57.24c-1.189,0-2.298,0.65-3.342,1.938v-7.831h-3.239v23.977h3.239v-1.732c1.079,1.338,2.192,1.979,3.342,1.979
					c1.291,0,2.157-0.679,2.59-2.007c0.215-0.757,0.326-1.947,0.326-3.601v-7.114c0-1.69-0.111-2.871-0.326-3.59
					C59.814,57.918,58.951,57.24,57.66,57.24z M57.339,70.216c0,1.614-0.476,2.41-1.408,2.41c-0.533,0-1.072-0.254-1.615-0.796
					V60.939c0.543-0.533,1.082-0.786,1.615-0.786c0.934,0,1.408,0.826,1.408,2.438V70.216z"/>
				<path d="M67.972,57.24c-1.652,0-2.942,0.608-3.877,1.833c-0.688,0.901-1,2.297-1,4.206v6.26c0,1.896,0.352,3.309,1.04,4.2
					c0.935,1.219,2.223,1.829,3.918,1.829c1.691,0,3.019-0.64,3.914-1.935c0.393-0.577,0.648-1.226,0.757-1.941
					c0.028-0.325,0.068-1.044,0.068-2.085v-0.476h-3.304c0,1.299-0.04,2.018-0.07,2.195c-0.185,0.864-0.65,1.297-1.446,1.297
					c-1.111,0-1.652-0.823-1.652-2.478v-3.168h6.473v-3.701c0-1.909-0.324-3.304-1-4.206C70.886,57.849,69.597,57.24,67.972,57.24z
					 M69.557,64.286h-3.237v-1.653c0-1.651,0.541-2.479,1.623-2.479c1.071,0,1.614,0.827,1.614,2.479V64.286z"/>
			</g>
		</g>
	</g>
</g>
<g id="Layer_2" display="none">
	<g display="inline">
		<path d="M34.726,62.051c-6.656,0-12.052-5.394-12.052-12.05c0-6.655,5.396-12.052,12.052-12.052c6.655,0,12.05,5.396,12.05,12.052
			S41.381,62.051,34.726,62.051z M65.275,62.051c-6.656,0-12.052-5.394-12.052-12.05c0-6.655,5.396-12.052,12.052-12.052
			c6.655,0,12.051,5.396,12.051,12.052C77.327,56.657,71.931,62.051,65.275,62.051z"/>
	</g>
</g>
<g id="Layer_3" display="none">
	<g display="inline">
		<path d="M49.997,10.787c-22.202,0-40.204,18.002-40.204,40.208c0,17.765,11.518,32.835,27.496,38.148
			c2.013,0.372,2.744-0.866,2.744-1.936c0-0.952-0.035-3.479-0.052-6.838c-11.185,2.431-13.545-5.391-13.545-5.391
			c-1.829-4.644-4.465-5.88-4.465-5.88c-3.65-2.493,0.277-2.445,0.277-2.445c4.035,0.287,6.159,4.144,6.159,4.144
			c3.586,6.145,9.411,4.366,11.701,3.344c0.363-2.604,1.404-4.372,2.552-5.378c-8.927-1.016-18.312-4.465-18.312-19.872
			c0-4.39,1.565-7.979,4.137-10.791c-0.411-1.013-1.794-5.101,0.395-10.638c0,0,3.376-1.081,11.059,4.125
			c3.205-0.896,6.645-1.343,10.064-1.356c3.415,0.014,6.856,0.46,10.066,1.356c7.676-5.205,11.046-4.125,11.046-4.125
			c2.194,5.538,0.813,9.625,0.4,10.638c2.577,2.812,4.132,6.401,4.132,10.791c0,15.444-9.399,18.846-18.354,19.837
			c1.441,1.242,2.728,3.701,2.728,7.452c0,5.372-0.05,9.708-0.05,11.026c0,1.077,0.724,2.33,2.765,1.931
			c15.961-5.324,27.471-20.383,27.471-38.143C90.207,28.789,72.205,10.787,49.997,10.787z"/>
	</g>
</g>
<g id="Layer_4" display="none">
	<g display="inline">
		<path d="M79.283,46.298l-6.155-1.346c-4.23-0.962-5.48-2.692-5.48-5.578c0-3.269,2.596-5.192,6.827-5.192
			c4.616,0,7.116,1.731,7.5,5.865l9.618-1.153c-0.771-8.656-6.731-12.215-16.541-12.215c-8.655,0-17.118,3.271-17.118,13.753
			c0,6.541,3.174,10.675,11.154,12.598l6.541,1.538c4.904,1.155,6.538,3.175,6.538,5.963c0,3.559-3.46,5.001-10.001,5.001
			c-9.712,0-13.75-5.097-16.06-12.117l-3.172-9.615c-4.039-12.503-10.482-17.12-23.274-17.12c-14.137,0-21.637,8.944-21.637,24.139
			c0,14.619,7.5,22.504,20.964,22.504c10.867,0,16.06-5.099,16.06-5.099l-3.077-8.365c0,0-5.001,5.579-12.502,5.579
			c-6.635,0-11.348-5.771-11.348-15.004c0-11.829,5.962-16.06,11.829-16.06c8.462,0,11.155,5.481,13.463,12.502l3.078,9.616
			c3.076,9.328,8.846,16.83,25.484,16.83c11.925,0,20.002-3.655,20.002-13.271C91.978,52.26,87.553,48.222,79.283,46.298z"/>
	</g>
</g>
<g id="Layer_5" display="none">
	<g display="inline">
		<path d="M81.616,12.887H18.365c-3.024,0-5.479,2.397-5.479,5.349v63.522c0,2.955,2.454,5.355,5.479,5.355h63.251
			c3.026,0,5.497-2.4,5.497-5.355V18.235C87.113,15.284,84.643,12.887,81.616,12.887z M34.9,76.139H23.886V40.717H34.9V76.139z
			 M29.395,35.873c-3.53,0-6.383-2.859-6.383-6.385c0-3.521,2.853-6.381,6.383-6.381c3.52,0,6.38,2.859,6.38,6.381
			C35.774,33.014,32.914,35.873,29.395,35.873z M76.134,76.139H65.137V58.914c0-4.11-0.079-9.393-5.723-9.393
			c-5.73,0-6.604,4.475-6.604,9.095v17.524H41.806V40.717h10.563v4.837h0.15c1.471-2.784,5.063-5.72,10.419-5.72
			c11.141,0,13.197,7.333,13.197,16.873L76.134,76.139L76.134,76.139z"/>
	</g>
</g>
<g id="Layer_6" display="none">
	<path id="Gears" display="inline" d="M93.743,40.654c0,4.011-3.252,7.258-7.26,7.258c-4.005,0-7.256-3.247-7.256-7.258
		c0-4.003,3.251-7.257,7.256-7.257C90.491,33.396,93.743,36.651,93.743,40.654z M86.447,27.145c-7.44,0-13.484,6.003-13.55,13.429
		l-8.443,12.099c-0.345-0.035-0.692-0.056-1.048-0.056c-1.886,0-3.648,0.52-5.164,1.423L20.001,38.661
		c-1-4.537-5.055-7.958-9.883-7.958C4.546,30.703,0,35.264,0,40.835c0,5.577,4.546,10.12,10.119,10.12
		c1.887,0,3.651-0.521,5.165-1.422l38.241,15.35c0.988,4.549,5.044,7.973,9.88,7.973c5.24,0,9.563-4.016,10.064-9.133l12.979-9.486
		c7.482,0,13.553-6.058,13.553-13.54C100,33.213,93.93,27.145,86.447,27.145z M86.447,31.611c5.015,0,9.086,4.073,9.086,9.085
		c0,5.013-4.072,9.073-9.086,9.073c-5.011,0-9.085-4.061-9.085-9.073C77.362,35.685,81.437,31.611,86.447,31.611z M10.119,33.383
		c2.859,0,5.326,1.598,6.575,3.951l-3.699-1.48v0.017c-2.98-1.073-6.291,0.387-7.48,3.349c-1.192,2.962,0.179,6.316,3.07,7.607
		v0.015l3.14,1.252c-0.517,0.114-1.055,0.184-1.605,0.184c-4.123,0-7.438-3.316-7.438-7.44C2.681,36.713,5.995,33.383,10.119,33.383
		z M63.404,55.295c4.125,0,7.44,3.317,7.44,7.441c0,4.121-3.315,7.438-7.44,7.438c-2.867,0-5.344-1.6-6.586-3.963
		c1.224,0.494,2.449,0.982,3.67,1.48c3.033,1.219,6.487-0.25,7.705-3.281c1.219-3.031-0.263-6.469-3.295-7.688l-3.1-1.243
		C62.317,55.367,62.854,55.295,63.404,55.295z"/>
</g>
<g id="Layer_7" display="none">
	<g display="inline">
		<g>
			<g>
				<path d="M45.041,71.021c-0.717,1.016-1.396,1.514-2.046,1.514c-0.434,0-0.68-0.252-0.758-0.756
					c-0.031-0.104-0.031-0.498-0.031-1.256V57.367h-3.235v14.127c0,1.264,0.108,2.115,0.286,2.656
					c0.322,0.906,1.042,1.33,2.086,1.33c1.189,0,2.412-0.719,3.697-2.195v1.949h3.24V57.367h-3.239V71.021z"/>
				<polygon points="27.213,54.631 31.021,54.631 31.021,75.234 34.622,75.234 34.622,54.631 38.5,54.631 38.5,51.256 
					27.213,51.256 				"/>
				<path d="M49.259,39.01c1.055,0,1.56-0.834,1.56-2.505v-7.597c0-1.669-0.505-2.501-1.56-2.501c-1.056,0-1.562,0.832-1.562,2.501
					v7.597C47.698,38.174,48.203,39.01,49.259,39.01z"/>
				<path d="M57.663,57.15c-1.189,0-2.299,0.649-3.342,1.936v-7.83h-3.24v23.979h3.24V73.5c1.078,1.34,2.191,1.98,3.342,1.98
					c1.29,0,2.157-0.68,2.589-2.01c0.216-0.756,0.326-1.945,0.326-3.6v-7.113c0-1.691-0.11-2.871-0.326-3.59
					C59.817,57.828,58.953,57.15,57.663,57.15z M57.342,70.127c0,1.611-0.477,2.408-1.409,2.408c-0.533,0-1.072-0.254-1.614-0.795
					V60.85c0.542-0.533,1.081-0.787,1.614-0.787c0.935,0,1.409,0.827,1.409,2.438V70.127z"/>
				<path d="M67.976,57.15c-1.653,0-2.944,0.607-3.879,1.832c-0.688,0.902-1,2.298-1,4.207v6.26c0,1.896,0.353,3.309,1.04,4.199
					c0.936,1.221,2.225,1.83,3.918,1.83c1.691,0,3.02-0.641,3.916-1.936c0.392-0.576,0.647-1.225,0.755-1.939
					c0.029-0.326,0.068-1.045,0.068-2.086v-0.477H69.49c0,1.299-0.04,2.02-0.07,2.195c-0.184,0.863-0.649,1.297-1.444,1.297
					c-1.112,0-1.653-0.824-1.653-2.479v-3.166h6.472v-3.701c0-1.909-0.323-3.305-1-4.207C70.889,57.758,69.599,57.15,67.976,57.15z
					 M69.56,64.195h-3.237v-1.652c0-1.652,0.541-2.479,1.622-2.479c1.071,0,1.615,0.826,1.615,2.479V64.195z"/>
				<path d="M79.897,12.887H20.103c-3.969,0-7.216,3.247-7.216,7.217v59.793c0,3.969,3.247,7.217,7.216,7.217h59.795
					c3.969,0,7.216-3.248,7.216-7.217V20.104C87.113,16.134,83.866,12.887,79.897,12.887z M56.783,23.681h3.261v13.29
					c0,0.77,0,1.169,0.041,1.274c0.07,0.507,0.326,0.765,0.767,0.765c0.653,0,1.342-0.506,2.064-1.531V23.681h3.273v18.052h-3.273
					v-1.97c-1.301,1.494-2.543,2.22-3.736,2.22c-1.054,0-1.779-0.427-2.105-1.343c-0.183-0.545-0.291-1.411-0.291-2.685V23.681z
					 M44.426,29.565c0-1.929,0.329-3.341,1.024-4.253c0.905-1.233,2.18-1.851,3.809-1.851c1.639,0,2.912,0.617,3.817,1.851
					c0.685,0.912,1.016,2.324,1.016,4.253v6.324c0,1.918-0.331,3.341-1.016,4.247c-0.905,1.229-2.177,1.848-3.817,1.848
					c-1.63,0-2.904-0.618-3.809-1.848c-0.695-0.906-1.024-2.329-1.024-4.247V29.565z M35.677,17.507l2.577,9.513l2.473-9.513h3.668
					l-4.362,14.415v9.811h-3.629v-9.811c-0.328-1.74-1.054-4.287-2.217-7.665c-0.765-2.247-1.562-4.505-2.326-6.75H35.677z
					 M75.849,76.307c-0.654,2.85-2.985,4.949-5.79,5.264c-6.644,0.74-13.366,0.746-20.059,0.74c-6.694,0.006-13.417,0-20.059-0.74
					c-2.806-0.314-5.134-2.416-5.788-5.264c-0.933-4.057-0.933-8.486-0.933-12.662c0-4.178,0.011-8.605,0.944-12.662
					c0.653-2.849,2.982-4.948,5.788-5.262c6.642-0.744,13.364-0.746,20.059-0.744c6.693-0.002,13.414,0,20.058,0.744
					c2.805,0.313,5.135,2.413,5.79,5.262c0.933,4.061,0.927,8.484,0.927,12.662C76.788,67.82,76.781,72.25,75.849,76.307z"/>
			</g>
		</g>
	</g>
</g>
</svg>
