<?xml version="1.0" encoding="utf-8"?>
<!-- Generator: Adobe Illustrator 16.0.0, SVG Export Plug-In . SVG Version: 6.00 Build 0)  -->
<!DOCTYPE svg PUBLIC "-//W3C//DTD SVG 1.1//EN" "http://www.w3.org/Graphics/SVG/1.1/DTD/svg11.dtd">
<svg version="1.1" id="yt" xmlns="http://www.w3.org/2000/svg" xmlns:xlink="http://www.w3.org/1999/xlink" x="0px" y="0px"
	 width="100px" height="100px" viewBox="0 0 100 100" enable-background="new 0 0 100 100" xml:space="preserve">
<g id="yt_1_">
	<path fill="#FFFFFF" d="M43.318,78.32c-0.965,1.367-1.881,2.039-2.756,2.039c-0.584,0-0.916-0.34-1.021-1.02
		C39.5,79.201,39.5,78.67,39.5,77.646V59.926h-4.359v19.031c0,1.703,0.145,2.85,0.385,3.578c0.435,1.221,1.404,1.791,2.81,1.791
		c1.604,0,3.25-0.969,4.982-2.957v2.625h4.365V59.926h-4.365V78.32z"/>
	<polygon fill="#FFFFFF" points="19.301,56.238 24.432,56.238 24.432,83.994 29.282,83.994 29.282,56.238 34.507,56.238 
		34.507,51.691 19.301,51.691 	"/>
	<path fill="#FFFFFF" d="M49.002,35.194c1.421,0,2.102-1.125,2.102-3.376V21.585c0-2.249-0.681-3.369-2.102-3.369
		c-1.423,0-2.105,1.12-2.105,3.369v10.233C46.898,34.068,47.579,35.194,49.002,35.194z"/>
	<path fill="#FFFFFF" d="M60.324,59.633c-1.604,0-3.098,0.875-4.504,2.609V51.691h-4.362v32.303h4.362v-2.336
		c1.455,1.805,2.955,2.668,4.504,2.668c1.738,0,2.904-0.914,3.488-2.705c0.291-1.02,0.438-2.623,0.438-4.85v-9.584
		c0-2.279-0.146-3.869-0.438-4.838C63.227,60.545,62.063,59.633,60.324,59.633z M59.891,77.113c0,2.174-0.641,3.246-1.896,3.246
		c-0.72,0-1.444-0.342-2.177-1.07V64.615c0.73-0.717,1.457-1.059,2.177-1.059c1.259,0,1.896,1.111,1.896,3.283V77.113z"/>
	<path fill="#FFFFFF" d="M74.216,59.633c-2.226,0-3.964,0.818-5.223,2.469c-0.929,1.215-1.349,3.096-1.349,5.666v8.436
		c0,2.555,0.475,4.457,1.399,5.658c1.261,1.643,2.996,2.465,5.278,2.465c2.277,0,4.064-0.863,5.271-2.607
		c0.529-0.775,0.875-1.648,1.02-2.613c0.039-0.439,0.095-1.406,0.095-2.811v-0.641h-4.451c0,1.75-0.055,2.719-0.095,2.957
		c-0.248,1.164-0.877,1.746-1.948,1.746c-1.497,0-2.226-1.107-2.226-3.338v-4.268h8.72v-4.984c0-2.574-0.438-4.451-1.349-5.668
		C78.143,60.451,76.404,59.633,74.216,59.633z M76.352,69.123h-4.359v-2.227c0-2.227,0.729-3.34,2.188-3.34
		c1.44,0,2.174,1.113,2.174,3.34v2.227H76.352z"/>
	<path fill="#FFFFFF" d="M90.277,0H9.722C4.375,0,0,4.375,0,9.722v80.555C0,95.623,4.375,100,9.722,100h80.555
		c5.347,0,9.723-4.377,9.723-9.723V9.722C100,4.375,95.624,0,90.277,0z M59.139,14.542h4.396v17.905c0,1.037,0,1.574,0.054,1.717
		c0.098,0.682,0.439,1.031,1.032,1.031c0.882,0,1.81-0.684,2.782-2.064V14.542h4.41v24.319h-4.41V36.21
		c-1.752,2.013-3.426,2.989-5.033,2.989c-1.419,0-2.396-0.575-2.84-1.811c-0.242-0.734-0.391-1.899-0.391-3.618V14.542z
		 M42.49,22.469c0-2.598,0.443-4.5,1.381-5.729c1.219-1.661,2.938-2.493,5.131-2.493c2.208,0,3.922,0.832,5.143,2.493
		c0.924,1.229,1.367,3.131,1.367,5.729v8.521c0,2.583-0.443,4.5-1.367,5.721c-1.221,1.657-2.934,2.49-5.143,2.49
		c-2.195,0-3.913-0.833-5.131-2.49c-0.938-1.221-1.381-3.138-1.381-5.721V22.469z M30.704,6.225l3.471,12.815l3.332-12.815h4.94
		L36.57,25.644v13.217h-4.888V25.644c-0.441-2.344-1.419-5.774-2.986-10.326c-1.031-3.027-2.104-6.069-3.134-9.093H30.704z
		 M84.824,85.441c-0.881,3.838-4.023,6.666-7.801,7.088c-8.949,1-18.008,1.006-27.023,1c-9.018,0.006-18.075,0-27.023-1
		c-3.78-0.422-6.916-3.254-7.797-7.088c-1.258-5.467-1.258-11.436-1.258-17.061c0-5.631,0.015-11.594,1.272-17.063
		c0.881-3.836,4.018-6.664,7.798-7.086c8.948-1.004,18.004-1.006,27.023-1.004c9.017-0.002,18.07,0,27.021,1.004
		c3.775,0.422,6.917,3.25,7.799,7.086c1.257,5.473,1.249,11.432,1.249,17.063C86.09,74.008,86.081,79.975,84.824,85.441z"/>
</g>
</svg>
