<?xml version="1.0" encoding="utf-8"?>
<!-- Generator: Adobe Illustrator 19.0.0, SVG Export Plug-In . SVG Version: 6.00 Build 0)  -->
<svg version="1.1" id="Krukar_Radio" xmlns="http://www.w3.org/2000/svg" xmlns:xlink="http://www.w3.org/1999/xlink" x="0px"
	 y="0px" viewBox="0 0 39.3 50" style="enable-background:new 0 0 39.3 50;" xml:space="preserve">
<style type="text/css">
	.st0{fill:#FFFFFF;}
	.st1{fill:url(#k_2_);}
</style>
<path id="k_7_" class="st0" d="M27.6,50c-6.1,0-9.2-6.9-12.1-13.5c-1.2-2.7-2.4-5.4-3.8-7.6c0,0-0.1,0-0.1,0.1c0,3.2,0,6.6,0,10.6
	c0,0.9-0.4,1.8-1.1,2.4c-1.5,1.3-4.1,1.2-4.7,1.1c-3-0.5-4.4-3.5-4.4-5.5v-0.4l0-0.2c0.4-2.3,0.7-5.1,1.1-8c-1.5-1.2-2.4-3-2.4-5
	c0-2.4,1.4-4.4,3.5-5.3C4,14.1,4.4,9.7,4.8,5.5l0-0.1C5,3.2,6.5,2.3,7.9,2.3c0.7,0,1.6,0.4,2.1,0.6c0.1,0.1,0.5,0.3,1.3,0.8l0.2,0.2
	L11.7,4c0.6,0.6,0.9,1.5,0.9,2.3l0,0.2c-0.3,4-0.6,7.5-0.7,11.2c2.8-2.8,6.7-7.8,10.6-15.9l0.1-0.2c0.5-0.8,1.2-1.4,2.1-1.6
	c0.8-0.2,1.7,0,2.4,0.4c2.1,1.4,2.2,4.2,1.4,5.8c-3.5,7.3-7.3,13.4-11,17.6c1.8,2.3,3.3,5.1,4.7,7.7c2.2,4.1,4.5,8.3,6.9,8.3
	c1.8,0,3.5-0.8,5.1-2.4l0.5-0.5l0.6-0.2c0.3-0.1,0.6-0.2,1.1-0.2c1.5,0,2.8,1.2,3,2.7c0.2,2-0.6,4.3-1.3,5.8
	C36.2,48.7,31.3,50,27.6,50z"/>
<path id="k_6_" d="M27.6,49.1c-5.5,0-8.3-6.3-11.3-13c-1.4-3-2.7-6.1-4.3-8.5c-0.4,0.3-0.8,0.5-1.2,0.7c-0.1,3.3-0.1,6.9-0.1,11.1
	c0,0.7-0.3,1.3-0.8,1.8c-1.2,1.1-3.6,1-4,0.9c-2.5-0.4-3.7-2.9-3.7-4.6v-0.4l0-0.2c0.4-2.4,0.8-5.4,1.1-8.6c-1.5-1-2.5-2.8-2.5-4.6
	c0-1.9,1.1-4,3.5-4.7c0.5-4.5,0.9-9.1,1.3-13.5C5.8,3.8,7,3.1,7.9,3.1c0.5,0,1.3,0.3,1.7,0.5c0.2,0.1,0.6,0.4,1.2,0.7l0.2,0.1
	l0.1,0.1c0.4,0.4,0.7,1.1,0.7,1.7l0,0.2c-0.4,4.7-0.7,8.8-0.8,13.1c0.1,0,0.1,0.1,0.2,0.1c2.9-2.6,7.5-7.8,12.1-17.5l0.1-0.1
	c0.2-0.3,0.6-1,1.5-1.2c0.6-0.1,1.2,0,1.7,0.3c1.7,1.2,1.7,3.5,1.1,4.6c-3.6,7.6-7.6,13.9-11.4,18c2,2.4,3.6,5.3,5.1,8.2
	c2.4,4.5,4.8,8.8,7.6,8.8c2.1,0,3.9-0.9,5.7-2.6l0.3-0.3l0.4-0.1c0.2-0.1,0.5-0.1,0.8-0.1c1,0,2,0.9,2.1,1.9
	c0.2,1.9-0.7,4.2-1.3,5.3C35.1,49,28.4,49.1,27.6,49.1z"/>
<linearGradient id="k_2_" gradientUnits="userSpaceOnUse" x1="19.6132" y1="32.8944" x2="31.3449" y2="132.8025">
	<stop  offset="0" style="stop-color:#FFFFFF"/>
	<stop  offset="1" style="stop-color:#000000"/>
</linearGradient>
<path id="k_1_" class="st1" d="M7.9,5.1c0,0,0.5,0.2,0.8,0.3c0.2,0.1,1,0.6,1,0.6s0.1,0.1,0.1,0.3C9.3,11.7,9.1,16.2,8.9,21
	c0.9,0.2,1.7,0.6,2.5,1.1c4-3.3,9.1-9.4,13.6-19c0,0,0.2-0.3,0.4-0.2C26.2,3.4,26,4.8,25.8,5c-3.8,7.9-8.2,14.8-12.3,18.8
	c6.1,6.1,8.8,18.9,15.4,18.9c2.9,0,5.2-1.3,7.1-3.2c0,0,0.1,0,0.2,0c0,0,0.2,0.1,0.2,0.2c0.1,1.1-0.4,2.8-1.1,4.3
	c-1.2,2.5-5.3,3.2-7.7,3.2c-6.9,0-9.5-15.5-15.3-22.3c-1.2,1-2.4,1.8-3.6,2.2c-0.1,3.7-0.1,7.7-0.1,12.4c0,0.7-2.1,0.8-2.6,0.8
	c-1.4-0.2-2-1.9-2-2.7v-0.2c0.4-2.6,0.9-6.1,1.3-10c-1.7-0.5-2.6-2-2.6-3.5c0-1.5,1-2.9,3.3-3.1c0.5-5.1,1-10.4,1.4-14.9
	C7.6,5.8,7.7,5.1,7.9,5.1z M6,21.7c-1.4,0.1-2.3,0.8-2.3,1.6c0,1.1,0.6,1.7,1.7,1.7h0.3L6,21.7z M10.2,22.9
	c-0.4-0.3-0.9-0.5-1.3-0.7c0,0.6,0,1.1,0,1.7C9.3,23.6,9.7,23.3,10.2,22.9z"/>
</svg>
