<?xml version="1.0" encoding="utf-8"?>
<!-- Generator: Adobe Illustrator 16.0.0, SVG Export Plug-In . SVG Version: 6.00 Build 0)  -->
<!DOCTYPE svg PUBLIC "-//W3C//DTD SVG 1.1//EN" "http://www.w3.org/Graphics/SVG/1.1/DTD/svg11.dtd">
<svg version="1.1" id="Layer_1" xmlns="http://www.w3.org/2000/svg" xmlns:xlink="http://www.w3.org/1999/xlink" x="0px" y="0px"
	 width="100px" height="100px" viewBox="0 0 100 100" enable-background="new 0 0 100 100" xml:space="preserve">
<g>
	<path fill="#FFFFFF" d="M88.947,46.391c-0.002-0.001-0.005-0.002-0.007-0.003L51.362,8.807h-0.001l0,0
		c-1.152-1.153-3.019-1.153-4.171,0l-6.16,6.16L27.859,1.796C26.802,0.692,25.323-0.001,23.677,0
		c-3.212-0.001-5.815,2.613-5.813,5.839c0,1.67,0.706,3.166,1.824,4.23l13.12,13.123L0.864,55.135l0,0
		c-1.152,1.151-1.152,3.019,0,4.171l37.582,37.583c1.152,1.153,3.021,1.153,4.172,0h0.001l46.328-46.327
		C90.098,49.41,90.098,47.542,88.947,46.391z M65.87,57.197H15.327l33.966-33.966l25.271,25.272L65.87,57.197z"/>
	<path fill="#FFFFFF" d="M98.289,76.671l-6.99-12.106c-0.037-0.068-0.073-0.138-0.117-0.201l-0.016-0.027l-0.005,0.002
		c-0.354-0.489-0.924-0.81-1.583-0.81c-0.595,0-1.113,0.272-1.471,0.688l-0.018-0.009l-0.069,0.118
		c-0.103,0.138-0.189,0.281-0.256,0.439l-6.832,11.835c-1.341,1.798-2.144,4.019-2.144,6.434c0,5.961,4.831,10.794,10.794,10.794
		c5.966,0,10.794-4.833,10.794-10.794C100.377,80.651,99.597,78.458,98.289,76.671z"/>
</g>
</svg>
