<?xml version="1.0" encoding="utf-8"?>
<!-- Generator: Adobe Illustrator 16.0.0, SVG Export Plug-In . SVG Version: 6.00 Build 0)  -->
<!DOCTYPE svg PUBLIC "-//W3C//DTD SVG 1.1//EN" "http://www.w3.org/Graphics/SVG/1.1/DTD/svg11.dtd">
<svg version="1.1" id="Layer_1" xmlns="http://www.w3.org/2000/svg" xmlns:xlink="http://www.w3.org/1999/xlink" x="0px" y="0px"
	 width="100px" height="100px" viewBox="0 0 100 100" enable-background="new 0 0 100 100" xml:space="preserve">
<g>
	<circle fill="#FFFFFF" cx="50.051" cy="54.024" r="11.754"/>
	<path fill="#FFFFFF" d="M95.44,18.124v-0.046H74.849v-3.45c0-2.54-2.062-4.599-4.6-4.599H29.75c-2.54,0-4.6,2.059-4.6,4.599v3.45
		H4.558v0.046c-2.541,0-4.598,2.058-4.598,4.598v62.604c0,2.54,2.057,4.6,4.598,4.6v0.045H95.44v-0.045c2.541,0,4.6-2.06,4.6-4.6
		V22.722C100.04,20.182,97.981,18.124,95.44,18.124z M50.305,77.853c-13.159,0-23.829-10.668-23.829-23.829
		c0-13.16,10.669-23.829,23.829-23.829c13.161,0,23.832,10.669,23.832,23.829C74.137,67.185,63.466,77.853,50.305,77.853z
		 M93.879,36.589H75.666V24.286h18.211v12.303H93.879z"/>
</g>
</svg>
