<?xml version="1.0" encoding="utf-8"?>
<!-- Generator: Adobe Illustrator 16.0.0, SVG Export Plug-In . SVG Version: 6.00 Build 0)  -->
<!DOCTYPE svg PUBLIC "-//W3C//DTD SVG 1.1//EN" "http://www.w3.org/Graphics/SVG/1.1/DTD/svg11.dtd">
<svg version="1.1" id="play" xmlns="http://www.w3.org/2000/svg" xmlns:xlink="http://www.w3.org/1999/xlink" x="0px" y="0px"
	 width="100px" height="100.08px" viewBox="0 0 100 100.08" enable-background="new 0 0 100 100.08" xml:space="preserve">
<path fill="#FFFFFF" d="M50.04,0C22.402,0,0,22.409,0,50.042c0,27.635,22.402,50.038,50.04,50.038
	c27.638,0,50.04-22.402,50.04-50.038C100.08,22.409,77.678,0,50.04,0z M50.04,86.816c-20.282,0-36.776-16.494-36.776-36.774
	c0-20.276,16.496-36.779,36.776-36.779c20.28,0,36.776,16.503,36.776,36.779C86.816,70.32,70.32,86.816,50.04,86.816z"/>
<path fill="#FFFFFF" d="M71.859,48.835l0.008-0.014l-31.18-18.002l-0.008,0.013c-0.208-0.121-0.438-0.209-0.695-0.209
	c-0.781,0-1.413,0.633-1.413,1.414c0,0.058,0.025,0.106,0.032,0.161h-0.032V68.2h0.032c0.083,0.702,0.658,1.255,1.381,1.255
	c0.259,0,0.487-0.087,0.695-0.21l0.021,0.037L71.882,51.28l-0.022-0.036c0.423-0.244,0.72-0.681,0.72-1.204
	S72.282,49.081,71.859,48.835z"/>
</svg>
